<svg width="282" height="347" viewBox="0 0 282 347" fill="none" xmlns="http://www.w3.org/2000/svg">
<rect width="122" height="122" transform="matrix(0.908553 -0.417769 0.904036 0.427456 27 293.968)" fill="#DF75E9"/>
<rect x="0.91126" y="1.41192" width="120.358" height="23.1969" transform="matrix(0.91122 0.411921 4.06618e-05 1 138.58 185.627)" fill="white" stroke="black" stroke-width="2"/>
<rect x="0.911179" y="0.588079" width="120.358" height="23.1969" transform="matrix(0.91122 -0.411921 -4.06618e-05 1 27.0841 236.777)" fill="white" stroke="black" stroke-width="2"/>
<rect y="0.823741" width="120.359" height="120.359" transform="matrix(0.911243 0.41187 -0.911243 0.41187 139.25 211.683)" fill="white" stroke="black" stroke-width="2"/>
<mask id="path-5-inside-1_19_10" fill="white">
<path d="M27.0022 236.398L138.497 286.799L138.498 311.996L27.0032 261.594L27.0022 236.398Z"/>
</mask>
<path d="M27.0022 236.398L138.497 286.799L138.498 311.996L27.0032 261.594L27.0022 236.398Z" fill="white"/>
<path d="M27.0022 236.398L27.0021 234.398L25.1797 233.574L25.1798 235.574L27.0022 236.398ZM27.0032 261.594L25.1808 260.771L25.1809 262.771L27.0033 263.594L27.0032 261.594ZM27.0023 238.398L138.497 288.799L138.497 284.799L27.0021 234.398L27.0023 238.398ZM138.498 309.996L27.0031 259.594L27.0033 263.594L138.498 313.996L138.498 309.996ZM28.8257 262.418L28.8246 237.221L25.1798 235.574L25.1808 260.771L28.8257 262.418Z" fill="black" mask="url(#path-5-inside-1_19_10)"/>
<rect x="0.911179" y="0.588079" width="120.358" height="23.1969" transform="matrix(0.91122 -0.411921 -4.06618e-05 1 138.58 287.173)" fill="white" stroke="black" stroke-width="2"/>
<rect x="-1.82249" width="124.359" height="124.359" transform="matrix(0.911243 -0.41187 0.911243 0.41187 26.8404 235.65)" fill="white" stroke="black" stroke-width="2"/>
<rect x="98" width="72" height="226" fill="url(#paint0_linear_19_10)"/>
<ellipse cx="134" cy="227" rx="36" ry="8" fill="#DF75E9"/>
<path fill-rule="evenodd" clip-rule="evenodd" d="M19.5814 98.0901C16.4402 101.459 15.5548 106.931 17.6698 113.708C21.8997 127.263 36.5293 140.905 50.3459 144.179C57.2541 145.816 62.6512 144.551 65.7924 141.183L78.0665 128.02C81.2077 124.652 82.0931 119.18 79.9781 112.402C75.7482 98.8477 61.1186 85.2054 47.3021 81.9313C40.3938 80.2942 34.9968 81.5592 31.8555 84.9278L19.5814 98.0901Z" fill="url(#paint1_linear_19_10)"/>
<g filter="url(#filter0_i_19_10)">
<ellipse cx="16.5974" cy="16.5974" rx="16.5974" ry="16.5974" transform="matrix(0.969136 0.246526 0.313529 0.949579 33.839 86.4427)" fill="#6C2972"/>
</g>
<path d="M77.7412 111.72C81.7374 123.823 74.9632 131.087 62.6106 127.945C50.258 124.803 37.0046 112.444 33.0083 100.341C29.0121 88.2373 35.7863 80.9728 48.1389 84.115C60.4915 87.2573 73.7449 99.6162 77.7412 111.72Z" stroke="#6C2972" stroke-width="1.26371"/>
<path fill-rule="evenodd" clip-rule="evenodd" d="M222.282 179.64C225.498 182.154 230.681 182.768 237.069 180.887C249.843 177.127 262.596 164.811 265.553 153.38C267.032 147.665 265.781 143.253 262.565 140.74L249.995 130.919C246.779 128.406 241.595 127.792 235.208 129.672C222.434 133.433 209.681 145.749 206.724 157.179C205.245 162.895 206.496 167.307 209.712 169.82L222.282 179.64Z" fill="url(#paint2_linear_19_10)"/>
<g filter="url(#filter1_i_19_10)">
<ellipse cx="14.7099" cy="14.7099" rx="14.7099" ry="14.7099" transform="matrix(0.252038 -0.905073 1.00956 -0.313235 211.125 168.158)" fill="#6C2972"/>
</g>
<path d="M234.585 131.526C245.99 127.988 252.927 133.408 250.08 143.632C247.232 153.856 235.679 165.013 224.275 168.551C212.87 172.09 205.933 166.67 208.78 156.446C211.627 146.222 223.181 135.065 234.585 131.526Z" stroke="#6C2972" stroke-width="1.12"/>
<g clip-path="url(#clip0_19_10)">
<path d="M59.5374 113.77C60.1675 113.748 60.4456 113.309 60.1572 112.789C59.8693 112.269 59.6358 111.848 59.6358 111.848C62.6141 111.489 63.8787 109.977 62.5796 107.633L62.5583 107.595C61.2379 105.213 58.8751 104.179 54.9913 103.59L53.7562 101.362C54.3182 101.452 54.9229 101.586 55.5409 101.766C56.5352 102.055 57.4194 101.821 57.5222 101.093C57.6256 100.365 56.8038 99.3765 55.682 99.0468C54.5652 98.7188 53.4211 98.506 52.2468 98.4383L51.9273 97.8618C51.7511 97.544 51.0973 97.3036 50.4668 97.3256C49.8363 97.3476 49.4612 97.6108 49.6283 97.9123C49.7961 98.2149 49.9318 98.4598 49.9318 98.4598C46.6902 98.7887 45.6758 100.43 46.9322 102.696L46.9537 102.735C48.2739 105.117 50.6597 106.111 54.5875 106.698L55.8654 109.003C54.9512 108.913 53.9846 108.696 52.9305 108.348C51.8078 107.977 50.7841 108.158 50.6297 108.882C50.4747 109.607 51.2505 110.601 52.3737 110.959C54.0243 111.485 55.7383 111.807 57.3311 111.89L57.8634 112.85C58.1576 113.38 58.907 113.792 59.5374 113.77ZM56.8213 106.933C58.1229 107.181 58.6118 107.458 58.8991 107.977L58.9206 108.016C59.2293 108.573 58.9494 108.915 57.9927 109.047L56.8213 106.933ZM50.6568 102.312L50.6355 102.273C50.3588 101.774 50.5631 101.375 51.5958 101.261L52.746 103.336C51.4013 103.089 50.9336 102.811 50.6568 102.312Z" fill="white" stroke="white" stroke-width="0.0798243"/>
</g>
<g clip-path="url(#clip1_19_10)">
<path d="M226.787 153.273L223.206 150.323L223.219 157.065L235.521 150.753L226.785 153.273L226.787 153.273ZM237.514 141.976L224.125 149.448L227.705 152.401L236.435 149.88L237.514 141.976Z" fill="white"/>
</g>
<defs>
<filter id="filter0_i_19_10" x="38.2174" y="90.0079" width="33.821" height="32.5739" filterUnits="userSpaceOnUse" color-interpolation-filters="sRGB">
<feFlood flood-opacity="0" result="BackgroundImageFix"/>
<feBlend mode="normal" in="SourceGraphic" in2="BackgroundImageFix" result="shape"/>
<feColorMatrix in="SourceAlpha" type="matrix" values="0 0 0 0 0 0 0 0 0 0 0 0 0 0 0 0 0 0 127 0" result="hardAlpha"/>
<feOffset dy="3.15927"/>
<feComposite in2="hardAlpha" operator="arithmetic" k2="-1" k3="1"/>
<feColorMatrix type="matrix" values="0 0 0 0 0 0 0 0 0 0 0 0 0 0 0 0 0 0 0.26 0"/>
<feBlend mode="normal" in2="shape" result="effect1_innerShadow_19_10"/>
</filter>
<filter id="filter1_i_19_10" x="214.373" y="136.144" width="30.6199" height="28.1844" filterUnits="userSpaceOnUse" color-interpolation-filters="sRGB">
<feFlood flood-opacity="0" result="BackgroundImageFix"/>
<feBlend mode="normal" in="SourceGraphic" in2="BackgroundImageFix" result="shape"/>
<feColorMatrix in="SourceAlpha" type="matrix" values="0 0 0 0 0 0 0 0 0 0 0 0 0 0 0 0 0 0 127 0" result="hardAlpha"/>
<feOffset dy="2.8"/>
<feComposite in2="hardAlpha" operator="arithmetic" k2="-1" k3="1"/>
<feColorMatrix type="matrix" values="0 0 0 0 0 0 0 0 0 0 0 0 0 0 0 0 0 0 0.26 0"/>
<feBlend mode="normal" in2="shape" result="effect1_innerShadow_19_10"/>
</filter>
<linearGradient id="paint0_linear_19_10" x1="134" y1="214.807" x2="134" y2="-18.1226" gradientUnits="userSpaceOnUse">
<stop stop-color="#DF75E9"/>
<stop offset="1" stop-color="#D9D9D9" stop-opacity="0"/>
</linearGradient>
<linearGradient id="paint1_linear_19_10" x1="67.2351" y1="93.3116" x2="30.4128" y2="132.799" gradientUnits="userSpaceOnUse">
<stop stop-color="#C06DCD"/>
<stop offset="1" stop-color="#9135A0" stop-opacity="0.81"/>
</linearGradient>
<linearGradient id="paint2_linear_19_10" x1="217.285" y1="140.55" x2="250.202" y2="174.636" gradientUnits="userSpaceOnUse">
<stop stop-color="#C06DCD"/>
<stop offset="1" stop-color="#9135A0" stop-opacity="0.81"/>
</linearGradient>
<clipPath id="clip0_19_10">
<rect width="18.8" height="18.8" fill="white" transform="matrix(0.999391 -0.0348995 0.48481 0.87462 41 97.6561)"/>
</clipPath>
<clipPath id="clip1_19_10">
<rect width="20.0736" height="20.0736" fill="white" transform="matrix(0.999391 0.0348995 -0.656059 0.75471 228.169 142)"/>
</clipPath>
</defs>
</svg>
